<svg width="614" height="613" viewBox="0 0 614 613" fill="none" xmlns="http://www.w3.org/2000/svg">
<path d="M6.44245 -37.2183C-9.04962 29.2477 -2.85278 170.276 145.871 202.659C331.776 243.138 334.774 226.647 399.241 307.605C463.708 388.564 409.736 520.496 552.163 577.467C666.105 623.044 719.577 614.448 732.071 604.453" stroke="#C2C2C2" stroke-linecap="round"/>
<path d="M49.661 -83.6201C34.1689 -17.1541 40.3658 123.874 189.09 156.257C374.994 196.736 377.993 180.245 442.46 261.203C506.927 342.162 452.955 474.094 595.382 531.065C709.323 576.642 762.796 568.046 775.29 558.051" stroke="#C2C2C2" stroke-linecap="round"/>
<path d="M74.0803 -125.989C58.5882 -59.5233 64.785 81.5045 213.509 113.888C399.414 154.367 402.412 137.876 466.879 218.834C531.346 299.793 477.374 431.725 619.801 488.696C733.743 534.273 787.215 525.677 799.709 515.682" stroke="#C2C2C2" stroke-linecap="round"/>
<path d="M98.4995 -168.358C83.0075 -101.892 89.2043 39.1359 237.928 71.5193C423.833 111.999 426.831 95.507 491.298 176.466C555.765 257.424 501.793 389.357 644.22 446.327C758.162 491.904 811.634 483.308 824.128 473.314" stroke="#C2C2C2" stroke-linecap="round"/>
<path d="M122.919 -210.727C107.427 -144.261 113.624 -3.23278 262.347 29.1506C448.252 69.6299 451.251 53.1383 515.718 134.097C580.185 215.055 526.212 346.988 668.639 403.959C782.581 449.535 836.054 440.94 848.547 430.945" stroke="#C2C2C2" stroke-linecap="round"/>
<path d="M147.338 -253.096C131.846 -186.63 138.043 -45.6019 286.767 -13.2185C472.671 27.2608 475.67 10.7692 540.137 91.7278C604.604 172.686 550.632 304.619 693.059 361.59C807 407.166 860.473 398.571 872.967 388.576" stroke="#C2C2C2" stroke-linecap="round"/>
<path d="M171.757 -295.465C156.265 -228.999 162.462 -87.9711 311.186 -55.5876C497.091 -15.1084 500.089 -31.6 564.556 49.3586C629.023 130.317 575.051 262.25 717.478 319.22C831.42 364.797 884.892 356.202 897.386 346.207" stroke="#C2C2C2" stroke-linecap="round"/>
<path d="M196.177 -337.833C180.684 -271.368 186.881 -130.34 335.605 -97.9563C521.51 -57.477 524.508 -73.9686 588.975 6.98996C653.442 87.9485 599.47 219.881 741.897 276.852C855.839 322.428 909.311 313.833 921.805 303.838" stroke="#C2C2C2" stroke-linecap="round"/>
</svg>
