<svg width="1440" height="1198" viewBox="0 0 1440 1198" fill="none" xmlns="http://www.w3.org/2000/svg">
<path d="M832.442 -37.2183C816.95 29.2477 823.147 170.276 971.871 202.659C1157.78 243.138 1160.77 226.647 1225.24 307.605C1289.71 388.564 1235.74 520.496 1378.16 577.467C1492.1 623.044 1545.58 614.448 1558.07 604.453" stroke="#C2C2C2" stroke-linecap="round"/>
<path d="M875.661 -83.6201C860.169 -17.1541 866.366 123.874 1015.09 156.257C1200.99 196.736 1203.99 180.245 1268.46 261.203C1332.93 342.162 1278.95 474.094 1421.38 531.065C1535.32 576.642 1588.8 568.046 1601.29 558.051" stroke="#C2C2C2" stroke-linecap="round"/>
<path d="M900.08 -125.989C884.588 -59.5233 890.785 81.5045 1039.51 113.888C1225.41 154.367 1228.41 137.876 1292.88 218.834C1357.35 299.793 1303.37 431.725 1445.8 488.696C1559.74 534.273 1613.22 525.677 1625.71 515.682" stroke="#C2C2C2" stroke-linecap="round"/>
<path d="M924.5 -168.358C909.007 -101.892 915.204 39.1359 1063.93 71.5193C1249.83 111.999 1252.83 95.507 1317.3 176.466C1381.77 257.424 1327.79 389.357 1470.22 446.327C1584.16 491.904 1637.63 483.308 1650.13 473.314" stroke="#C2C2C2" stroke-linecap="round"/>
<path d="M948.919 -210.727C933.427 -144.261 939.624 -3.23278 1088.35 29.1506C1274.25 69.6299 1277.25 53.1383 1341.72 134.097C1406.18 215.055 1352.21 346.988 1494.64 403.959C1608.58 449.535 1662.05 440.94 1674.55 430.945" stroke="#C2C2C2" stroke-linecap="round"/>
<path d="M973.338 -253.096C957.846 -186.63 964.043 -45.6019 1112.77 -13.2185C1298.67 27.2608 1301.67 10.7692 1366.14 91.7278C1430.6 172.686 1376.63 304.619 1519.06 361.59C1633 407.166 1686.47 398.571 1698.97 388.576" stroke="#C2C2C2" stroke-linecap="round"/>
<path d="M997.757 -295.465C982.265 -228.999 988.462 -87.9711 1137.19 -55.5876C1323.09 -15.1084 1326.09 -31.6 1390.56 49.3586C1455.02 130.317 1401.05 262.25 1543.48 319.22C1657.42 364.797 1710.89 356.202 1723.39 346.207" stroke="#C2C2C2" stroke-linecap="round"/>
<path d="M1022.18 -337.833C1006.68 -271.368 1012.88 -130.34 1161.61 -97.9563C1347.51 -57.477 1350.51 -73.9686 1414.98 6.98996C1479.44 87.9485 1425.47 219.881 1567.9 276.852C1681.84 322.428 1735.31 313.833 1747.81 303.838" stroke="#C2C2C2" stroke-linecap="round"/>
</svg>
